inDegrees=no
num_controls=7
num_derivatives=13
num_iterations=162
num_multipliers=7
num_parameters=0
num_slacks=7
num_states=26
objective=5.436498
objective_accelerations=0.367768
objective_balance=0.046361
objective_effort=0.363540
objective_height=4.562572
objective_ligament=0.096257
solver_duration=1598.527240
status=Solve_Succeeded
success=true
DataType=double
version=3
OpenSimVersion=4.4-2022-07-23-0e9fedc
endheader
time	/jointset/ground_pelvis/pelvis_tilt/value	/jointset/ground_pelvis/pelvis_tx/value	/jointset/ground_pelvis/pelvis_ty/value	/jointset/hip_l/hip_flexion_l/value	/jointset/hip_l/hip_adduction_l/value	/jointset/hip_l/hip_rotation_l/value	/jointset/back/lumbar_extension/value	/jointset/patellofemoral_l/patellar_flexion_l/value	/jointset/knee_l/knee_flexion_l/value	/jointset/knee_l/knee_adduction_l/value	/jointset/knee_l/knee_rotation_l/value	/jointset/ankle_l/ankle_angle_l/value	/jointset/subtalar_l/subtalar_angle_l/value	/jointset/ground_pelvis/pelvis_tilt/speed	/jointset/ground_pelvis/pelvis_tx/speed	/jointset/ground_pelvis/pelvis_ty/speed	/jointset/hip_l/hip_flexion_l/speed	/jointset/hip_l/hip_adduction_l/speed	/jointset/hip_l/hip_rotation_l/speed	/jointset/back/lumbar_extension/speed	/jointset/patellofemoral_l/patellar_flexion_l/speed	/jointset/knee_l/knee_flexion_l/speed	/jointset/knee_l/knee_adduction_l/speed	/jointset/knee_l/knee_rotation_l/speed	/jointset/ankle_l/ankle_angle_l/speed	/jointset/subtalar_l/subtalar_angle_l/speed	/forceset/tau_hip_flexion_l	/forceset/tau_hip_adduction_l	/forceset/tau_hip_rotation_l	/forceset/tau_knee_flexion_l	/forceset/tau_ankle_angle_l	/forceset/tau_subtalar_angle_l	/forceset/tau_lumbar_extension	lambda_cid13_p0	lambda_cid13_p1	lambda_cid13_p2	lambda_cid13_p3	lambda_cid13_p4	lambda_cid13_p5	lambda_cid14_p0	/jointset/ground_pelvis/pelvis_tilt/accel	/jointset/ground_pelvis/pelvis_tx/accel	/jointset/ground_pelvis/pelvis_ty/accel	/jointset/hip_l/hip_flexion_l/accel	/jointset/hip_l/hip_adduction_l/accel	/jointset/hip_l/hip_rotation_l/accel	/jointset/back/lumbar_extension/accel	/jointset/patellofemoral_l/patellar_flexion_l/accel	/jointset/knee_l/knee_flexion_l/accel	/jointset/knee_l/knee_adduction_l/accel	/jointset/knee_l/knee_rotation_l/accel	/jointset/ankle_l/ankle_angle_l/accel	/jointset/subtalar_l/subtalar_angle_l/accel	gamma_cid13_p0	gamma_cid13_p1	gamma_cid13_p2	gamma_cid13_p3	gamma_cid13_p4	gamma_cid13_p5	gamma_cid14_p0
1.5	0.1132860027662371	0.0424653623456305	0.8873308289055045	0.4130468939718565	-0.3197999283345917	-0.1703005250757761	-0.7666484590098912	0.6766418719470545	0.6766418719467436	-0.1108711974688998	-0.1745322222664946	0.2039006778499253	0.04771518025206545	0.04215522153310546	0.13539842889668	0.2773337980913507	-1.29587998842476	0.1090386936354481	-0.5555131642941465	0.8478450046752196	-1.735664260931824	-1.735664260931786	-0.1219524350566545	-6.795176873349956e-06	-0.5873198099573071	-0.09603392994100983	-0.1176387368310328	0.02949228377366238	-0.005409372285311869	-0.2240979094682582	0.008385981919992182	0.03467868229454225	0.2294090062995407	-39.72415361016772	-11.45195644143367	5.193859854024191	-0.09472945479405048	-675.6588718670637	-77.24154526329205	-18.76748695147208	-0.2843231856376304	0.3172027771167942	-0.4842057548339878	-0.1878237704331288	0.3131116856096294	-0.2586869333446183	1.441105447381075	-0.7604263535043719	-0.7604263535043716	-0.3141839410752339	0.03408571361176027	-0.281304696404412	0.3042252943432903	1.722117969722323e-08	1.232477724956104e-06	-3.445300340596036e-08	1.74496618847799e-07	4.945080305613492e-08	5.648267934029093e-07	9.528669267283323e-08
1.51	0.1136933355471502	0.04383506679232202	0.8900794141923158	0.4000802045003971	-0.3186941994721976	-0.1758695798091117	-0.758099036331395	0.6592495286596678	0.6592495286595509	-0.1121060972547306	-0.174532212594001	0.1980141917816206	0.04676989897254876	0.0393161152232881	0.1385265543628284	0.2723318054529865	-1.297299645259522	0.1121017687799388	-0.5582452323625288	0.8619233941764496	-1.742566682941632	-1.742566682941608	-0.1250192873662598	4.138605975119701e-06	-0.5898861385175763	-0.09300250439948174	-0.1128545124595283	0.02816572915389057	-0.005381599845113893	-0.2208185425926897	0.01098658965258102	0.03401981586483851	0.2242483315028218	-38.77150206041364	-11.35235553628874	5.200531191941626	-0.3312490383801795	-672.8822288244098	-77.20641823823648	-19.32065093071589	-0.2829984059012273	0.3082689410334763	-0.5159098201776743	-0.09531260881292682	0.3019632689715896	-0.2725052378895647	1.373785174529442	-0.6195104826508897	-0.6195104826529382	-0.3015054993994551	-0.0160706249653464	-0.2305733077970546	0.305373076978728	2.100965939234851e-09	1.238861941704799e-06	2.058954235783045e-08	1.828207149101262e-07	3.09071083691461e-08	5.299113443572345e-07	8.981276464611799e-08
1.52	0.1140724184545127	0.04523558279560908	0.8927764367923755	0.387104063266824	-0.3175580282903471	-0.1814643629219872	-0.7494123138632791	0.6417952890805949	0.6417952890806734	-0.1133713794883468	-0.17453222715081	0.192104787153321	0.04585548632703102	0.03650524682357543	0.1415607402157908	0.267021260741021	-1.297770340846888	0.1151271575285494	-0.5606588402030952	0.8753049625990952	-1.748043519268713	-1.748043519268703	-0.1280289246157202	-1.164103464453206e-05	-0.5919035219562021	-0.08986020314110731	-0.1080702880880258	0.0268391745341127	-0.005353827404865881	-0.2175391757171259	0.013587197385168	0.03336094943513101	0.2190876567061038	-37.82349968774158	-11.25215599744784	5.207353382380456	-0.5749945526572398	-670.1903956661945	-77.1911131805518	-19.85307840132073	-0.2786756036165741	0.2984148544795001	-0.5459161695542373	0.001968479046009237	0.3055744064336386	-0.1949948877814213	1.301741231664258	-0.4753092169590571	-0.4753092169590806	-0.3027409290461991	0.02874302891819739	-0.1715156720758778	0.3264004377125501	-1.416333886629748e-09	1.227386979285503e-06	1.798901480511993e-08	1.826963096466919e-07	2.62091064204405e-08	5.1706979462233e-07	8.980685299909218e-08
1.53	0.1144234926012538	0.04666593534960912	0.8954188634695386	0.3741280207648598	-0.3163918379985319	-0.1870814021573981	-0.7405953836089411	0.6242934220792876	0.6242934220793271	-0.1146666882292284	-0.1745323309091285	0.1861779375275134	0.04497298357924445	0.03371184140424393	0.1444900538873642	0.2614180700261249	-1.29727291389068	0.1181035834005053	-0.5626892891582439	0.8879500174792216	-1.75208789174904	-1.752087891749033	-0.1310230695621314	-7.945314465687471e-06	-0.5933747563840918	-0.08662317762838607	-0.103071475961727	0.0252073390474409	-0.005379273307817399	-0.2145479895869443	0.01644191746199197	0.03277375698485921	0.2137749112966972	-36.79857199914692	-11.19786961262145	5.222998289242281	-0.8417038761245806	-667.6027082262829	-77.32135420932532	-20.36150837269598	-0.2793429690132039	0.2872658633290253	-0.5744129057532528	0.09840462747377059	0.2924565451462601	-0.1980231978897239	1.22622699796668	-0.3327226206614329	-0.3327226206618132	-0.2961082170278142	-0.01364875043285502	-0.1211488309332432	0.3247524392684034	7.394462340387027e-09	1.196936639000216e-06	-4.585727814637257e-08	1.73595371724636e-07	3.622215300616065e-08	5.276817629051186e-07	9.561070875548632e-08
1.54	0.1147466987022238	0.04812499628829156	0.8980038797628935	0.3611619074971791	-0.3151961274744726	-0.1927169365420671	-0.7316559349294457	0.6067583670817672	0.6067583670817519	-0.1159916098075052	-0.1745323640290575	0.180239131256869	0.04412333085282828	0.03093163766803412	0.1473024171522708	0.2555391839793864	-1.295784493991855	0.1210312039752392	-0.5643578700537134	0.8998086476305371	-1.754681118513045	-1.75468111851304	-0.1339514920921052	2.486645688387592e-06	-0.5942948509234917	-0.08329019886700485	-0.09807266383541406	0.02357550356078051	-0.005404719210867246	-0.2115568034567528	0.01929663753881343	0.03218656453457903	0.2084621658872958	-35.77856335246993	-11.14175863194502	5.237252479163222	-1.115909544092668	-665.1047794572485	-77.47282220951243	-20.8426829634252	-0.2760352669921138	0.275024773146074	-0.6010552359227084	0.200167067569312	0.2958133469892771	-0.1226212758455576	1.144456285902149	-0.1850800736946455	-0.1850800736946506	-0.2895964457586776	0.03009027691325294	-0.06128769437801118	0.3455910874445335	6.285975322212337e-09	1.177193723517847e-06	-5.80614451391359e-08	1.699463537763246e-07	3.675893002042058e-08	5.155428624732781e-07	9.590395583180941e-08
1.55	0.1150421699463167	0.04961155514008331	0.9005287787517716	0.3482157490856224	-0.3139713249999552	-0.198367464989721	-0.722601924530094	0.5892047864766057	0.5892047864766016	-0.1173452298498544	-0.1745323109735608	0.1742939510641502	0.04330759205866481	0.02816846946668889	0.1499855152332154	0.2494001569246346	-1.293276176730992	0.1239213886324664	-0.5656888167894172	0.9108488605066252	-1.75578021361824	-1.755780213618278	-0.13675117201481	6.652933222521388e-06	-0.5946444166162147	-0.07983924663483886	-0.09302270871180283	0.02200146514039941	-0.005476702969558755	-0.2086167290522705	0.02219471116225837	0.03148214994472803	0.2031218827314715	-34.75787920453448	-11.02651061454101	5.232545268446725	-1.3585427507586	-662.7210357059091	-77.52677858683197	-21.29336094947134	-0.2755907941825951	0.2614114376506981	-0.6263908490275425	0.3018002072985566	0.2842955429723327	-0.1294072928820255	1.062118028655805	-0.03412319038451712	-0.03412319039092743	-0.2717669044037518	-0.01463350450514397	-0.007246409646883962	0.3474092153537462	-6.25125108716059e-09	1.169787623569275e-06	-1.07649017881493e-08	1.72578895797762e-07	2.637739644147693e-08	4.771910046093665e-07	8.984802334196404e-08
1.56	0.1153101828689036	0.05112423679510106	0.9029910745883469	0.3352998010770669	-0.312717885775289	-0.2040295180888223	-0.7134418491539422	0.5716478551280985	0.5716478551281096	-0.1187261693192038	-0.1745322589170524	0.1683481841339188	0.04252687517167334	0.025439973366263	0.1525269777974693	0.2430185535188501	-1.289742413391977	0.1267585540050095	-0.5666628003430914	0.9210216429904551	-1.755351267181537	-1.755351267181617	-0.1394153774926106	2.286853610782178e-06	-0.5944121984260344	-0.07628581743262867	-0.08797275358819408	0.02042742672001704	-0.005548686728201455	-0.2056766546477915	0.02509278478570314	0.03077773535487631	0.1977815995756455	-33.74242505054288	-10.90902432327512	5.225971056251053	-1.606471604562879	-660.4324661445246	-77.5981441759175	-21.71038081928469	-0.2691008468081093	0.246697669807855	-0.6495705061292605	0.4052562831998806	0.2852094900524631	-0.0512286394396663	0.9709702074506229	0.1205282346849714	0.1205282346849771	-0.2625015567778329	0.02838380348401513	0.05506908220258516	0.3660864814533278	-7.339744763355696e-09	1.15970701242206e-06	-1.954916989388513e-08	1.703493475645787e-07	2.806080071726715e-08	4.706686267059485e-07	9.035485906578968e-08
1.57	0.1155510735744592	0.05266157756180932	0.905388400783366	0.3224243668945939	-0.3114364236280385	-0.2096993119125378	-0.704184520292519	0.5541028898111109	0.5541028898112396	-0.1201332813764535	-0.1745321960238764	0.1624076189686515	0.04178209371026139	0.02274307386087692	0.1549122715756496	0.2364120793916555	-1.285163259371654	0.1295230082135826	-0.5672358504482141	0.930284792952226	-1.753377095690396	-1.753377095690447	-0.1419791779313336	5.882178738083564e-06	-0.5936030724010364	-0.07265513272272774	-0.08279791821603456	0.01878283027577693	-0.005672872207272729	-0.2028920787842214	0.02810684653954712	0.03002870247894488	0.1923648559899582	-32.70183613150409	-10.77100320965384	5.209773861805807	-1.82880510129418	-658.2816848266904	-77.66348039567116	-22.09067560750247	-0.2692575658129467	0.2301410881099417	-0.6713658844818617	0.5114077351320196	0.2703181280609245	-0.0512358362745562	0.8800869394230699	0.2755458692036384	0.2755458692079454	-0.2489694986118484	-0.01433827977411721	0.1085268483603755	0.3636986077541363	5.88267747692134e-09	1.146283262276541e-06	-9.843445232052332e-08	1.620421865131198e-07	4.482537731147457e-08	5.039330987531473e-07	9.906515505670399e-08
1.58	0.115765140672281	0.05422191043755691	0.9077186262334198	0.3096001568070599	-0.3101276659903461	-0.2153730147653486	-0.694839340021701	0.5365856030616093	0.5365856030618535	-0.1215651614803258	-0.1745322343127795	0.1564780835607769	0.0410740469243478	0.02007525181912106	0.1571253996053337	0.2295984045257878	-1.27949759440399	0.1322176520942082	-0.5674446061623764	0.9385919248693007	-1.749815553684257	-1.74981555368428	-0.1443689868177515	-1.794956818272103e-05	-0.5922062469475597	-0.06893888233300079	-0.07762308284388965	0.01713823383153038	-0.005797057686327362	-0.2001075029206591	0.03112090829339043	0.02927966960301713	0.1869481124042638	-31.66651123952339	-10.63094940557316	5.191984233144536	-2.058707770594347	-656.2280905932854	-77.75079494005838	-22.43134558860967	-0.2632853540819199	0.2122645201084955	-0.6910106538638616	0.6225584726680561	0.2712474244629969	0.02163023875237342	0.7797665985114683	0.4380023376844635	0.4380023376844104	-0.227703246316781	0.02289838907434066	0.1726089678981828	0.3831996174184826	3.503003792796197e-08	1.150028249006301e-06	-2.430764487078372e-07	1.479068541534467e-07	8.854294998136224e-08	5.872198807369955e-07	1.166320536852472e-07
1.59	0.1159528380303279	0.05580350936775894	0.9099797818702814	0.2968375899257211	-0.3087926236753255	-0.2210463937108458	-0.6854161028722205	0.5191115770899598	0.5191115770900728	-0.1230209806815158	-0.1745323497848924	0.1505652970609004	0.0404031593204476	0.01746871303995257	0.159164229699583	0.2226046668597071	-1.272834446790671	0.1347697439099563	-0.567158611001752	0.9458907268396044	-1.744720121892809	-1.744720121892827	-0.146779186868768	-6.079937493249037e-06	-0.5902513645530155	-0.06523388658536651	-0.07235695163059346	0.01522640997382244	-0.005959073130376576	-0.1975828336965574	0.03436652391779159	0.02856719800471972	0.1815309032216582	-30.57019482846879	-10.51634055909085	5.176979317512908	-2.322894115149904	-654.407635204875	-77.94763290149545	-22.72990299102274	-0.2586646388482895	0.1951912882340885	-0.7077203823805895	0.71539307685178	0.2439791476636962	0.04312388146067665	0.6802202683946935	0.585708642525542	0.5857086425263105	-0.2451823544226817	-0.009919963645503436	0.2219144812105677	0.3647462208710805	8.578981452218057e-08	1.177073664352511e-06	-4.769596997560632e-07	1.258618607326266e-07	1.688395887539568e-07	7.383940833491495e-07	1.462186273220003e-07
